<svg height="57.861" viewBox="0 0 57.861 57.861" width="57.861" xmlns="http://www.w3.org/2000/svg"><path d="m38.931 962.362a28.931 28.931 0 1 0 28.931 28.931 28.91 28.91 0 0 0 -28.931-28.931zm-11.031 16.638a1.425 1.425 0 0 1 .158 0 1.446 1.446 0 0 1 1.04.429l9.832 9.809 9.809-9.809a1.455 1.455 0 1 1 2.057 2.057l-9.832 9.832 9.832 9.809a1.454 1.454 0 1 1 -2.057 2.057l-9.809-9.832-9.832 9.832a1.454 1.454 0 0 1 -2.057-2.057l9.809-9.809-9.809-9.832a1.447 1.447 0 0 1 .859-2.486z" fill="#fe3e3e" fill-rule="evenodd" transform="translate(-10 -962.362)"/></svg>